<?xml version="1.0" encoding="utf-8"?><svg xmlns="http://www.w3.org/2000/svg" xmlns:xlink="http://www.w3.org/1999/xlink"><symbol fill="currentColor" style="shape-rendering:geometricPrecision;text-rendering:geometricPrecision;image-rendering:optimizeQuality;fill-rule:evenodd;clip-rule:evenodd" viewBox="0 0 50 50" id="calendar" xmlns="http://www.w3.org/2000/svg"><path style="opacity:.987" d="M9.5-.5h6v4h18v-4h6v4h8v9h-46v-9h8zm2 2q1.79.705 2 3l-1 3a9.87 9.87 0 0 1-1-6m24 0q1.79.705 2 3l-1 3a9.87 9.87 0 0 1-1-6"/><path style="opacity:.999" d="M1.5 14.5h46v33h-46zm10 6h5v5h-5zm7 0h5v5h-5zm7 0h5v5h-5zm7 0h5v5h-5zm-21 7h5v5h-5zm7 0h5v5h-5zm7 0h5v5h-5zm7 0h5v5h-5zm-21 7h5v5h-5zm7 0h5v5h-5zm7 0h5v5h-5zm7 0h5v5h-5z"/></symbol><symbol viewBox="0 0 50 50" fill="currentColor" id="community" xmlns="http://www.w3.org/2000/svg"><path d="M15.4 3.4c-5.2 2.3-6.7 9.1-2.8 13.1 1.2 1.2 1.3 1.9.3 3.6-1 2-.9 2.1.7 1.5 1.1-.4 4.1-1.2 6.8-1.7 6.2-1.1 9.4-3.2 10.2-6.4 1-4-.4-7.4-3.9-9.5-3.7-2.3-7-2.5-11.3-.6"/><path d="M32.2 7.8c1.3 3.4.4 7.6-2.1 10.1-1.9 1.9-1.8 1.9.7 2.4 1.5.3 3.8.9 5.1 1.3 2.1.6 2.3.4 1.8-1-.4-1 0-2.7.8-3.9 2.3-3.3 1.8-6.3-1.6-9.1-4.2-3.6-6.1-3.5-4.7.2m-19 17.3c-2.1.8-2.3 1.4-2 5.7.3 2.6.7 5.4 1.1 6.2.4 1-.4 2.2-2.6 3.5C5.6 43.1 4.9 46 8.4 46c3.7 0 11.2-7.6 9.6-9.5-.7-.8-1-3.6-.8-6.6.3-5.6-.3-6.3-4-4.8"/><path d="M20.7 25.8c-1.9 2-2.3 8.7-.7 9.7 1.8 1.1 1.1 5.3-1 6-2.6.8-5 3.3-5 5.1 0 1.1 2.1 1.4 11.1 1.4 10 0 11-.2 10.7-1.7-.2-1-2-2.9-4.1-4.2-3.6-2.3-4.8-5.3-2.7-6.6.6-.3 1-2.4 1-4.5 0-6-5.7-9.2-9.3-5.2"/><path d="M32.4 24.6c-.7.3-.9 2.3-.6 5.4s0 5.5-.8 6.5c-1.3 1.6-.6 3.5 1.5 3.5.8 0 2.4 1.4 3.7 3 2.3 3.2 7.8 4.3 7.8 1.7 0-1.6-3.1-4.7-4.7-4.7-2.3 0-3.3-2.6-1.9-4.6 1.9-2.7 1.4-8.3-.9-10-2-1.5-2.3-1.5-4.1-.8"/></symbol><symbol fill="currentColor" viewBox="0 0 50 50" id="github" xmlns="http://www.w3.org/2000/svg"><path d="M17.791 46.836A1.999 1.999 0 0 0 19 45v-5.4c0-.197.016-.402.041-.61A.611.611 0 0 1 19 39h-3.6c-1.5 0-2.8-.6-3.4-1.8-.7-1.3-1-3.5-2.8-4.7-.3-.2-.1-.5.5-.5.6.1 1.9.9 2.7 2 .9 1.1 1.8 2 3.4 2 2.487 0 3.82-.125 4.622-.555C21.356 34.056 22.649 33 24 33v-.025c-5.668-.182-9.289-2.066-10.975-4.975-3.665.042-6.856.405-8.677.707a21.537 21.537 0 0 1-.151-.987c1.797-.296 4.843-.647 8.345-.714a8.162 8.162 0 0 1-.291-.849c-3.511-.178-6.541-.039-8.187.097-.02-.332-.047-.663-.051-.999 1.649-.135 4.597-.27 8.018-.111a9.832 9.832 0 0 1-.13-1.543c0-1.7.6-3.5 1.7-5-.5-1.7-1.2-5.3.2-6.6 2.7 0 4.6 1.3 5.5 2.1C21 13.4 22.9 13 25 13s4 .4 5.6 1.1c.9-.8 2.8-2.1 5.5-2.1 1.5 1.4.7 5 .2 6.6 1.1 1.5 1.7 3.2 1.6 5 0 .484-.045.951-.11 1.409 3.499-.172 6.527-.034 8.204.102-.002.337-.033.666-.051.999-1.671-.138-4.775-.28-8.359-.089a8.272 8.272 0 0 1-.325.98c3.546.046 6.665.389 8.548.689-.043.332-.093.661-.151.987-1.912-.306-5.171-.664-8.879-.682-1.665 2.878-5.22 4.755-10.777 4.974V33c2.6 0 5 3.9 5 6.6V45c0 .823.498 1.53 1.209 1.836C41.37 43.804 48 35.164 48 25 48 12.318 37.683 2 25 2S2 12.318 2 25c0 10.164 6.63 18.804 15.791 21.836z"/></symbol><symbol fill="currentColor" viewBox="0 0 50 50" id="linkedin" xmlns="http://www.w3.org/2000/svg">&gt;<path d="M41 4H9C6.24 4 4 6.24 4 9v32c0 2.76 2.24 5 5 5h32c2.76 0 5-2.24 5-5V9c0-2.76-2.24-5-5-5zM17 20v19h-6V20h6zm-6-5.53c0-1.4 1.2-2.47 3-2.47s2.93 1.07 3 2.47c0 1.4-1.12 2.53-3 2.53-1.8 0-3-1.13-3-2.53zM39 39h-6V29c0-2-1-4-3.5-4.04h-.08C27 24.96 26 27.02 26 29v10h-6V20h6v2.56S27.93 20 31.81 20c3.97 0 7.19 2.73 7.19 8.26V39z"/></symbol><symbol viewBox="0 0 50 50" fill="currentColor" id="rating" xmlns="http://www.w3.org/2000/svg"><path d="M21 9.5 17.7 18H9.4c-4.5 0-8.5.4-8.8.9s2.3 3.3 5.9 6.2 6.5 6 6.5 6.8c0 .9-.9 4.8-2 8.6s-2 7.1-2 7.2c0 1.2 3.5-.4 8.5-3.7 3.3-2.2 6.7-4 7.5-4s4.2 1.8 7.5 4c5 3.3 8.5 4.9 8.5 3.7 0-.1-.9-3.4-2-7.2s-2-7.7-2-8.6c0-.8 2.9-3.9 6.5-6.8 3.6-2.8 6.3-5.6 6-6.2-.4-.5-4.4-.9-9-.9h-8.3l-3.3-8.5C27.2 4.8 25.4 1 25 1s-2.2 3.8-4 8.5"/></symbol><symbol viewBox="0 0 489.04 35.4" id="tmdb-logo" xmlns="http://www.w3.org/2000/svg"><defs><linearGradient id="fa" y1="17.7" x2="489.04" y2="17.7" gradientUnits="userSpaceOnUse"><stop offset="0" stop-color="#90cea1"/><stop offset=".56" stop-color="#3cbec9"/><stop offset="1" stop-color="#00b3e5"/></linearGradient></defs><g data-name="Layer 2"><path d="M293.5 0h8.9l8.75 23.2h.1l8.9-23.2h8.35l-14.6 35.4h-6.25Zm46.6 0h7.8v35.4h-7.8Zm22.2 0h24.05v7.2H370.1v6.6h15.35V21H370.1v7.2h17.15v7.2H362.3Zm55 0H429a33.5 33.5 0 0 1 8.07 1 18.55 18.55 0 0 1 6.68 3 15.1 15.1 0 0 1 4.52 5.53A18.5 18.5 0 0 1 450 17.8a16.9 16.9 0 0 1-1.63 7.58 16.4 16.4 0 0 1-4.37 5.5 19.5 19.5 0 0 1-6.35 3.37A24.6 24.6 0 0 1 430 35.4h-12.71Zm7.81 28.2h4a21.6 21.6 0 0 0 5-.55 10.9 10.9 0 0 0 4-1.83 8.7 8.7 0 0 0 2.67-3.34 11.9 11.9 0 0 0 1-5.08 9.9 9.9 0 0 0-1-4.52 9 9 0 0 0-2.62-3.18 11.7 11.7 0 0 0-3.88-1.88 17.4 17.4 0 0 0-4.67-.62h-4.6ZM461.24 0h13.2a34 34 0 0 1 4.63.32 12.9 12.9 0 0 1 4.17 1.3 7.9 7.9 0 0 1 3 2.73A8.34 8.34 0 0 1 487.39 9a7.42 7.42 0 0 1-1.67 5 9.3 9.3 0 0 1-4.43 2.82v.1a10 10 0 0 1 3.18 1 8.4 8.4 0 0 1 2.45 1.85 7.8 7.8 0 0 1 1.57 2.62 9.2 9.2 0 0 1 .55 3.2 8.5 8.5 0 0 1-1.2 4.68 9.4 9.4 0 0 1-3.1 3 13.4 13.4 0 0 1-4.27 1.65 23 23 0 0 1-4.73.5h-14.5ZM469 14.15h5.65a8 8 0 0 0 1.78-.2 4.8 4.8 0 0 0 1.57-.65 3.34 3.34 0 0 0 1.13-1.2 3.63 3.63 0 0 0 .42-1.8 3.2 3.2 0 0 0-.47-1.82 3.3 3.3 0 0 0-1.23-1.13 5.8 5.8 0 0 0-1.7-.58 11 11 0 0 0-1.85-.17H469Zm0 14.65h7a9 9 0 0 0 1.83-.2 4.8 4.8 0 0 0 1.67-.7 4 4 0 0 0 1.23-1.3 3.7 3.7 0 0 0 .47-2 3.13 3.13 0 0 0-.62-2 4 4 0 0 0-1.58-1.15 7.8 7.8 0 0 0-2-.55 15 15 0 0 0-2.05-.15H469Zm-265 6.53h67a17.66 17.66 0 0 0 17.66-17.66A17.67 17.67 0 0 0 271 0h-66.94a17.67 17.67 0 0 0-17.66 17.67 17.66 17.66 0 0 0 17.66 17.66ZM10.1 6.9H0V0h28v6.9H17.9v28.5h-7.8ZM39 0h7.8v13.2h15.1V0h7.8v35.4h-7.8V20.1H46.75v15.3H39Zm41.2 0h24v7.2H88v6.6h15.35V21H88v7.2h17.15v7.2h-25Zm55 0H147l8.15 23.1h.1l8.2-23.1h11.75v35.4h-7.8V8.25h-.1L158 35.4h-5.95l-9-27.15H143V35.4h-7.8Z" style="fill:url(#fa)" data-name="Layer 1"/></g></symbol></svg>