<svg version="1.0" xmlns="http://www.w3.org/2000/svg" width="66.667" height="66.667" viewBox="0 0 50 50"
    fill="currentColor">
    <path
        d="M15.4 3.4c-5.2 2.3-6.7 9.1-2.8 13.1 1.2 1.2 1.3 1.9.3 3.6-1 2-.9 2.1.7 1.5 1.1-.4 4.1-1.2 6.8-1.7 6.2-1.1 9.4-3.2 10.2-6.4 1-4-.4-7.4-3.9-9.5-3.7-2.3-7-2.5-11.3-.6" />
    <path
        d="M32.2 7.8c1.3 3.4.4 7.6-2.1 10.1-1.9 1.9-1.8 1.9.7 2.4 1.5.3 3.8.9 5.1 1.3 2.1.6 2.3.4 1.8-1-.4-1 0-2.7.8-3.9 2.3-3.3 1.8-6.3-1.6-9.1-4.2-3.6-6.1-3.5-4.7.2m-19 17.3c-2.1.8-2.3 1.4-2 5.7.3 2.6.7 5.4 1.1 6.2.4 1-.4 2.2-2.6 3.5C5.6 43.1 4.9 46 8.4 46c3.7 0 11.2-7.6 9.6-9.5-.7-.8-1-3.6-.8-6.6.3-5.6-.3-6.3-4-4.8" />
    <path
        d="M20.7 25.8c-1.9 2-2.3 8.7-.7 9.7 1.8 1.1 1.1 5.3-1 6-2.6.8-5 3.3-5 5.1 0 1.1 2.1 1.4 11.1 1.4 10 0 11-.2 10.7-1.7-.2-1-2-2.9-4.1-4.2-3.6-2.3-4.8-5.3-2.7-6.6.6-.3 1-2.4 1-4.5 0-6-5.7-9.2-9.3-5.2" />
    <path
        d="M32.4 24.6c-.7.3-.9 2.3-.6 5.4s0 5.5-.8 6.5c-1.3 1.6-.6 3.5 1.5 3.5.8 0 2.4 1.4 3.7 3 2.3 3.2 7.8 4.3 7.8 1.7 0-1.6-3.1-4.7-4.7-4.7-2.3 0-3.3-2.6-1.9-4.6 1.9-2.7 1.4-8.3-.9-10-2-1.5-2.3-1.5-4.1-.8" />
</svg>